{"title":"Mai.Dire.Grande.Fratello.Show.2009.1x01.DVB-TRip.MP3.iTA.XviD.fi","uid":5137876,"size":734412800,"categoryP":"video","categoryS":"tv_shows","magnet":"?xt=urn:btih:cdbd2837d0a11b905fd989e95a3e2469bbddd5c4&amp;dn=Mai.Dire.Grande.Fratello.Show.2009.1x01.DVB-TRip.MP3.iTA.XviD.fi&amp;tr=udp%3A%2F%2Ftracker.openbittorrent.com%3A80&amp;tr=udp%3A%2F%2Fopen.demonii.com%3A1337&amp;tr=udp%3A%2F%2Ftracker.coppersurfer.tk%3A6969&amp;tr=udp%3A%2F%2Fexodus.desync.com%3A6969","seeders":0,"leechers":1,"uploader":null,"files":1,"time":1256654005,"description":"Taken from http://forum.tntvillage.scambioetico.org/tntforum/index.php?showtopic=162079\n\n\nGeneral\nComplete name                    : C:Mai.Dire.Grande.Fratello.Show.2009.1x01.DVB-TRip.MP3.iTA.XviD.firefox.avi\nFormat                           : AVI\nFormat/Info                      : Audio Video Interleave\nFile size                        : 700 MiB\nDuration                         : 1h 31mn\nOverall bit rate                 : 1 070 Kbps\nWriting application              : VirtualDubMod 1.5.4.1 (build 2178/release)\nWriting library                  : VirtualDubMod build 2178/release\n\nVideo\nID                               : 0\nFormat                           : MPEG-4 Visual\nFormat profile                   : AdvancedSimple@L5\nFormat settings, BVOP            : Yes\nFormat settings, QPel            : No\nFormat settings, GMC             : No warppoints\nFormat settings, Matrix          : Custom\nCodec ID                         : XVID\nCodec ID/Hint                    : XviD\nDuration                         : 1h 31mn\nBit rate                         : 959 Kbps\nWidth                            : 640 pixels\nHeight                           : 480 pixels\nDisplay aspect ratio             : 4:3\nFrame rate                       : 25.000 fps\nResolution                       : 24 bits\nColorimetry                      : 4:2:0\nScan type                        : Progressive\nBits/(Pixel*Frame)               : 0.125\nStream size                      : 628 MiB (90%)\nWriting library                  : XviD 1.2.1 (UTC 2008-12-04)\n\nAudio\nID                               : 1\nFormat                           : MPEG Audio\nFormat version                   : Version 1\nFormat profile                   : Layer 3\nCodec ID                         : 55\nCodec ID/Hint                    : MP3\nDuration                         : 1h 31mn\nBit rate mode                    : Variable\nBit rate                         : 98.4 Kbps\nChannel(s)                       : 2 channels\nSampling rate                    : 48.0 KHz\nResolution                       : 16 bits\nStream size                      : 64.4 MiB (9%)\nAlignment                        : Aligned on interleaves\nInterleave, duration             : 24 ms (0.60 video frame)\nInterleave, preload duration     : 550 ms\n\n","torrent":{"xt":"urn:btih:cdbd2837d0a11b905fd989e95a3e2469bbddd5c4","amp;dn":"Mai.Dire.Grande.Fratello.Show.2009.1x01.DVB-TRip.MP3.iTA.XviD.fi","amp;tr":["udp%3A%2F%2Ftracker.openbittorrent.com%3A80","udp%3A%2F%2Fopen.demonii.com%3A1337","udp%3A%2F%2Ftracker.coppersurfer.tk%3A6969","udp%3A%2F%2Fexodus.desync.com%3A6969"],"infoHash":"cdbd2837d0a11b905fd989e95a3e2469bbddd5c4","infoHashBuffer":{"type":"Buffer","data":[205,189,40,55,208,161,27,144,95,217,137,233,90,62,36,105,187,221,213,196]},"announce":[],"urlList":[]}}